<svg xmlns="http://www.w3.org/2000/svg" xmlns:xlink="http://www.w3.org/1999/xlink" version="1.1" width="256" height="256" viewBox="0 0 256 256" xml:space="preserve">

<defs>
</defs>
<g style="stroke: none; stroke-width: 0; stroke-dasharray: none; stroke-linecap: butt; stroke-linejoin: miter; stroke-miterlimit: 10; fill: none; fill-rule: nonzero; opacity: 1;" transform="translate(1.4065934065934016 1.4065934065934016) scale(2.81 2.81)" >
	<path d="M 70.196 27.336 c -0.553 0 -1 -0.448 -1 -1 V 12.86 c 0 -4.402 -3.581 -7.983 -7.983 -7.983 c -0.553 0 -1 -0.448 -1 -1 s 0.447 -1 1 -1 c 5.505 0 9.983 4.479 9.983 9.983 v 13.476 C 71.196 26.889 70.749 27.336 70.196 27.336 z" style="stroke: none; stroke-width: 1; stroke-dasharray: none; stroke-linecap: butt; stroke-linejoin: miter; stroke-miterlimit: 10; fill: rgb(0,0,0); fill-rule: nonzero; opacity: 1;" transform=" matrix(1 0 0 1 0 0) " stroke-linecap="round" />
	<path d="M 47.678 79.542 H 18.967 c -0.552 0 -1 -0.447 -1 -1 V 13.86 H 1 c -0.552 0 -1 -0.448 -1 -1 c 0 -5.505 4.479 -9.983 9.983 -9.983 s 9.983 4.479 9.983 9.983 v 64.682 h 27.711 c 0.553 0 1 0.447 1 1 S 48.23 79.542 47.678 79.542 z M 2.063 11.86 h 15.842 c -0.493 -3.932 -3.857 -6.983 -7.921 -6.983 S 2.556 7.928 2.063 11.86 z" style="stroke: none; stroke-width: 1; stroke-dasharray: none; stroke-linecap: butt; stroke-linejoin: miter; stroke-miterlimit: 10; fill: rgb(0,0,0); fill-rule: nonzero; opacity: 1;" transform=" matrix(1 0 0 1 0 0) " stroke-linecap="round" />
	<path d="M 61.213 4.877 H 9.983 c -0.552 0 -1 -0.448 -1 -1 s 0.448 -1 1 -1 h 51.229 c 0.553 0 1 0.448 1 1 S 61.766 4.877 61.213 4.877 z" style="stroke: none; stroke-width: 1; stroke-dasharray: none; stroke-linecap: butt; stroke-linejoin: miter; stroke-miterlimit: 10; fill: rgb(0,0,0); fill-rule: nonzero; opacity: 1;" transform=" matrix(1 0 0 1 0 0) " stroke-linecap="round" />
	<path d="M 89 87.123 H 47.678 c -0.553 0 -1 -0.447 -1 -1 V 26.336 c 0 -0.552 0.447 -1 1 -1 H 89 c 0.553 0 1 0.448 1 1 v 59.787 C 90 86.676 89.553 87.123 89 87.123 z M 48.678 85.123 H 88 V 27.336 H 48.678 V 85.123 z" style="stroke: none; stroke-width: 1; stroke-dasharray: none; stroke-linecap: butt; stroke-linejoin: miter; stroke-miterlimit: 10; fill: rgb(0,0,0); fill-rule: nonzero; opacity: 1;" transform=" matrix(1 0 0 1 0 0) " stroke-linecap="round" />
	<path d="M 83.025 46.388 H 53.651 c -0.553 0 -1 -0.447 -1 -1 V 32.311 c 0 -0.552 0.447 -1 1 -1 h 29.374 c 0.553 0 1 0.448 1 1 v 13.077 C 84.025 45.94 83.578 46.388 83.025 46.388 z M 54.651 44.388 h 27.374 V 33.311 H 54.651 V 44.388 z" style="stroke: none; stroke-width: 1; stroke-dasharray: none; stroke-linecap: butt; stroke-linejoin: miter; stroke-miterlimit: 10; fill: rgb(0,0,0); fill-rule: nonzero; opacity: 1;" transform=" matrix(1 0 0 1 0 0) " stroke-linecap="round" />
	<path d="M 60.226 81.148 h -6.574 c -0.553 0 -1 -0.447 -1 -1 v -5.86 c 0 -0.553 0.447 -1 1 -1 h 6.574 c 0.553 0 1 0.447 1 1 v 5.86 C 61.226 80.701 60.778 81.148 60.226 81.148 z M 54.651 79.148 h 4.574 v -3.86 h -4.574 V 79.148 z" style="stroke: none; stroke-width: 1; stroke-dasharray: none; stroke-linecap: butt; stroke-linejoin: miter; stroke-miterlimit: 10; fill: rgb(0,0,0); fill-rule: nonzero; opacity: 1;" transform=" matrix(1 0 0 1 0 0) " stroke-linecap="round" />
	<path d="M 83.025 81.148 h -6.574 c -0.553 0 -1 -0.447 -1 -1 V 63.392 c 0 -0.553 0.447 -1 1 -1 h 6.574 c 0.553 0 1 0.447 1 1 v 16.757 C 84.025 80.701 83.578 81.148 83.025 81.148 z M 77.451 79.148 h 4.574 V 64.392 h -4.574 V 79.148 z" style="stroke: none; stroke-width: 1; stroke-dasharray: none; stroke-linecap: butt; stroke-linejoin: miter; stroke-miterlimit: 10; fill: rgb(0,0,0); fill-rule: nonzero; opacity: 1;" transform=" matrix(1 0 0 1 0 0) " stroke-linecap="round" />
	<path d="M 71.626 81.148 h -6.574 c -0.553 0 -1 -0.447 -1 -1 v -5.86 c 0 -0.553 0.447 -1 1 -1 h 6.574 c 0.553 0 1 0.447 1 1 v 5.86 C 72.626 80.701 72.179 81.148 71.626 81.148 z M 66.052 79.148 h 4.574 v -3.86 h -4.574 V 79.148 z" style="stroke: none; stroke-width: 1; stroke-dasharray: none; stroke-linecap: butt; stroke-linejoin: miter; stroke-miterlimit: 10; fill: rgb(0,0,0); fill-rule: nonzero; opacity: 1;" transform=" matrix(1 0 0 1 0 0) " stroke-linecap="round" />
	<path d="M 60.226 70.252 h -6.574 c -0.553 0 -1 -0.447 -1 -1 v -5.86 c 0 -0.553 0.447 -1 1 -1 h 6.574 c 0.553 0 1 0.447 1 1 v 5.86 C 61.226 69.805 60.778 70.252 60.226 70.252 z M 54.651 68.252 h 4.574 v -3.86 h -4.574 V 68.252 z" style="stroke: none; stroke-width: 1; stroke-dasharray: none; stroke-linecap: butt; stroke-linejoin: miter; stroke-miterlimit: 10; fill: rgb(0,0,0); fill-rule: nonzero; opacity: 1;" transform=" matrix(1 0 0 1 0 0) " stroke-linecap="round" />
	<path d="M 71.626 70.252 h -6.574 c -0.553 0 -1 -0.447 -1 -1 v -5.86 c 0 -0.553 0.447 -1 1 -1 h 6.574 c 0.553 0 1 0.447 1 1 v 5.86 C 72.626 69.805 72.179 70.252 71.626 70.252 z M 66.052 68.252 h 4.574 v -3.86 h -4.574 V 68.252 z" style="stroke: none; stroke-width: 1; stroke-dasharray: none; stroke-linecap: butt; stroke-linejoin: miter; stroke-miterlimit: 10; fill: rgb(0,0,0); fill-rule: nonzero; opacity: 1;" transform=" matrix(1 0 0 1 0 0) " stroke-linecap="round" />
	<path d="M 60.226 59.356 h -6.574 c -0.553 0 -1 -0.447 -1 -1 v -5.861 c 0 -0.553 0.447 -1 1 -1 h 6.574 c 0.553 0 1 0.447 1 1 v 5.861 C 61.226 58.909 60.778 59.356 60.226 59.356 z M 54.651 57.356 h 4.574 v -3.861 h -4.574 V 57.356 z" style="stroke: none; stroke-width: 1; stroke-dasharray: none; stroke-linecap: butt; stroke-linejoin: miter; stroke-miterlimit: 10; fill: rgb(0,0,0); fill-rule: nonzero; opacity: 1;" transform=" matrix(1 0 0 1 0 0) " stroke-linecap="round" />
	<path d="M 83.025 59.356 h -6.574 c -0.553 0 -1 -0.447 -1 -1 v -5.861 c 0 -0.553 0.447 -1 1 -1 h 6.574 c 0.553 0 1 0.447 1 1 v 5.861 C 84.025 58.909 83.578 59.356 83.025 59.356 z M 77.451 57.356 h 4.574 v -3.861 h -4.574 V 57.356 z" style="stroke: none; stroke-width: 1; stroke-dasharray: none; stroke-linecap: butt; stroke-linejoin: miter; stroke-miterlimit: 10; fill: rgb(0,0,0); fill-rule: nonzero; opacity: 1;" transform=" matrix(1 0 0 1 0 0) " stroke-linecap="round" />
	<path d="M 71.626 59.356 h -6.574 c -0.553 0 -1 -0.447 -1 -1 v -5.861 c 0 -0.553 0.447 -1 1 -1 h 6.574 c 0.553 0 1 0.447 1 1 v 5.861 C 72.626 58.909 72.179 59.356 71.626 59.356 z M 66.052 57.356 h 4.574 v -3.861 h -4.574 V 57.356 z" style="stroke: none; stroke-width: 1; stroke-dasharray: none; stroke-linecap: butt; stroke-linejoin: miter; stroke-miterlimit: 10; fill: rgb(0,0,0); fill-rule: nonzero; opacity: 1;" transform=" matrix(1 0 0 1 0 0) " stroke-linecap="round" />
	<path d="M 62.845 16.235 H 26.318 c -0.552 0 -1 -0.448 -1 -1 s 0.448 -1 1 -1 h 36.527 c 0.553 0 1 0.448 1 1 S 63.397 16.235 62.845 16.235 z" style="stroke: none; stroke-width: 1; stroke-dasharray: none; stroke-linecap: butt; stroke-linejoin: miter; stroke-miterlimit: 10; fill: rgb(0,0,0); fill-rule: nonzero; opacity: 1;" transform=" matrix(1 0 0 1 0 0) " stroke-linecap="round" />
	<path d="M 38.226 26.737 H 26.318 c -0.552 0 -1 -0.448 -1 -1 s 0.448 -1 1 -1 h 11.908 c 0.552 0 1 0.448 1 1 S 38.778 26.737 38.226 26.737 z" style="stroke: none; stroke-width: 1; stroke-dasharray: none; stroke-linecap: butt; stroke-linejoin: miter; stroke-miterlimit: 10; fill: rgb(0,0,0); fill-rule: nonzero; opacity: 1;" transform=" matrix(1 0 0 1 0 0) " stroke-linecap="round" />
	<path d="M 38.226 37.238 H 26.318 c -0.552 0 -1 -0.448 -1 -1 s 0.448 -1 1 -1 h 11.908 c 0.552 0 1 0.448 1 1 S 38.778 37.238 38.226 37.238 z" style="stroke: none; stroke-width: 1; stroke-dasharray: none; stroke-linecap: butt; stroke-linejoin: miter; stroke-miterlimit: 10; fill: rgb(0,0,0); fill-rule: nonzero; opacity: 1;" transform=" matrix(1 0 0 1 0 0) " stroke-linecap="round" />
	<path d="M 38.226 47.74 H 26.318 c -0.552 0 -1 -0.447 -1 -1 s 0.448 -1 1 -1 h 11.908 c 0.552 0 1 0.447 1 1 S 38.778 47.74 38.226 47.74 z" style="stroke: none; stroke-width: 1; stroke-dasharray: none; stroke-linecap: butt; stroke-linejoin: miter; stroke-miterlimit: 10; fill: rgb(0,0,0); fill-rule: nonzero; opacity: 1;" transform=" matrix(1 0 0 1 0 0) " stroke-linecap="round" />
	<path d="M 38.226 58.241 H 26.318 c -0.552 0 -1 -0.447 -1 -1 s 0.448 -1 1 -1 h 11.908 c 0.552 0 1 0.447 1 1 S 38.778 58.241 38.226 58.241 z" style="stroke: none; stroke-width: 1; stroke-dasharray: none; stroke-linecap: butt; stroke-linejoin: miter; stroke-miterlimit: 10; fill: rgb(0,0,0); fill-rule: nonzero; opacity: 1;" transform=" matrix(1 0 0 1 0 0) " stroke-linecap="round" />
	<path d="M 38.226 68.743 H 26.318 c -0.552 0 -1 -0.447 -1 -1 s 0.448 -1 1 -1 h 11.908 c 0.552 0 1 0.447 1 1 S 38.778 68.743 38.226 68.743 z" style="stroke: none; stroke-width: 1; stroke-dasharray: none; stroke-linecap: butt; stroke-linejoin: miter; stroke-miterlimit: 10; fill: rgb(0,0,0); fill-rule: nonzero; opacity: 1;" transform=" matrix(1 0 0 1 0 0) " stroke-linecap="round" />
</g>
</svg>